<mxfile host="Electron" agent="Mozilla/5.0 (Windows NT 10.0; Win64; x64) AppleWebKit/537.36 (KHTML, like Gecko) draw.io/24.7.8 Chrome/128.0.6613.36 Electron/32.0.1 Safari/537.36" version="24.7.8">
  <diagram name="Page-1" id="bUzMUSa9QiUleHXSEd7I">
    <mxGraphModel dx="955" dy="570" grid="1" gridSize="9" guides="1" tooltips="1" connect="1" arrows="1" fold="1" page="1" pageScale="1" pageWidth="1654" pageHeight="1169" math="0" shadow="0">
      <root>
        <mxCell id="0" />
        <mxCell id="1" parent="0" />
        <mxCell id="qJvq-40bTvdCjgoIowwi-1" value="Alternator" style="rounded=1;whiteSpace=wrap;html=1;" vertex="1" parent="1">
          <mxGeometry x="410" y="790" width="80" height="90" as="geometry" />
        </mxCell>
        <mxCell id="qJvq-40bTvdCjgoIowwi-2" value="" style="ellipse;whiteSpace=wrap;html=1;aspect=fixed;" vertex="1" parent="1">
          <mxGeometry x="310" y="940" width="40" height="40" as="geometry" />
        </mxCell>
        <mxCell id="qJvq-40bTvdCjgoIowwi-3" value="Injector 1" style="rounded=1;whiteSpace=wrap;html=1;fontSize=9;" vertex="1" parent="1">
          <mxGeometry x="690" y="620" width="50" height="20" as="geometry" />
        </mxCell>
        <mxCell id="qJvq-40bTvdCjgoIowwi-4" value="Injector 2" style="rounded=1;whiteSpace=wrap;html=1;fontSize=9;" vertex="1" parent="1">
          <mxGeometry x="690" y="590" width="50" height="20" as="geometry" />
        </mxCell>
        <mxCell id="qJvq-40bTvdCjgoIowwi-5" value="Injector 3" style="rounded=1;whiteSpace=wrap;html=1;fontSize=9;" vertex="1" parent="1">
          <mxGeometry x="690" y="560" width="50" height="20" as="geometry" />
        </mxCell>
        <mxCell id="qJvq-40bTvdCjgoIowwi-6" value="Injector 4" style="rounded=1;whiteSpace=wrap;html=1;fontSize=9;" vertex="1" parent="1">
          <mxGeometry x="690" y="530" width="50" height="20" as="geometry" />
        </mxCell>
        <mxCell id="qJvq-40bTvdCjgoIowwi-7" value="Injector 5" style="rounded=1;whiteSpace=wrap;html=1;fontSize=9;" vertex="1" parent="1">
          <mxGeometry x="690" y="500" width="50" height="20" as="geometry" />
        </mxCell>
        <mxCell id="qJvq-40bTvdCjgoIowwi-8" value="Injector 6" style="rounded=1;whiteSpace=wrap;html=1;fontSize=9;" vertex="1" parent="1">
          <mxGeometry x="690" y="470" width="50" height="20" as="geometry" />
        </mxCell>
        <mxCell id="qJvq-40bTvdCjgoIowwi-9" value="MAP&lt;div style=&quot;font-size: 9px;&quot;&gt;Sensor&lt;/div&gt;" style="rounded=1;whiteSpace=wrap;html=1;fontSize=9;" vertex="1" parent="1">
          <mxGeometry x="700" y="387" width="40" height="30" as="geometry" />
        </mxCell>
        <mxCell id="qJvq-40bTvdCjgoIowwi-10" value="Intake&lt;br style=&quot;font-size: 9px;&quot;&gt;Air Temp" style="rounded=1;whiteSpace=wrap;html=1;fontSize=9;" vertex="1" parent="1">
          <mxGeometry x="975" y="500" width="40" height="30" as="geometry" />
        </mxCell>
        <mxCell id="qJvq-40bTvdCjgoIowwi-11" value="Idle Air&lt;div&gt;Control&lt;/div&gt;" style="rounded=1;whiteSpace=wrap;html=1;fontSize=9;" vertex="1" parent="1">
          <mxGeometry x="920" y="585" width="40" height="30" as="geometry" />
        </mxCell>
        <mxCell id="qJvq-40bTvdCjgoIowwi-12" value="Throttle&lt;br&gt;Position" style="rounded=1;whiteSpace=wrap;html=1;fontSize=9;" vertex="1" parent="1">
          <mxGeometry x="975" y="540" width="40" height="30" as="geometry" />
        </mxCell>
        <mxCell id="qJvq-40bTvdCjgoIowwi-13" value="Throttle&lt;div&gt;Body&lt;/div&gt;" style="ellipse;whiteSpace=wrap;html=1;fontSize=9;" vertex="1" parent="1">
          <mxGeometry x="970" y="575" width="50" height="50" as="geometry" />
        </mxCell>
        <mxCell id="qJvq-40bTvdCjgoIowwi-14" value="Engine&lt;div&gt;Coolant Temp&lt;/div&gt;" style="rounded=1;whiteSpace=wrap;html=1;fontSize=9;" vertex="1" parent="1">
          <mxGeometry x="694" y="426" width="46" height="36" as="geometry" />
        </mxCell>
      </root>
    </mxGraphModel>
  </diagram>
</mxfile>
